#!OML:ASF F:\VICON\USERDATA\INSTALL\rory3\rory3.ASF
:FULLY-SPECIFIED
:DEGREES
1
root 1.6264 16.1882 -32.77 18.7351 5.4182 -4.76253
lowerback -6.6425 0.747057 2.36791
upperback -10.1462 1.03617 1.03729
thorax -6.87999 0.407695 -0.230832
lowerneck -10.9558 -1.04849 -1.23577
upperneck 40.6992 -3.16525 4.90398
head 16.6297 -0.799386 1.89482
rclavicle -2.75193e-014 -2.98177e-015
rhumerus 40.7761 -30.2729 -15.72
rradius 26.9628
rwrist 6.0309
rhand 8.13666 5.47465
rfingers 7.12502
rthumb 33.357 -21.4496
lclavicle -2.75193e-014 -2.98177e-015
lhumerus 46.3347 36.3589 17.1151
lradius 30.5419
lwrist -18.4195
lhand 5.40985 18.1784
lfingers 7.12502
lthumb 30.7608 45.6252
rfemur -68.0841 6.42331 25.6908
rtibia 43.7964
rfoot -8.31596 -41.749
rtoes 40.5165
lfemur -37.012 -4.68671 -24.2176
ltibia 40.4396
lfoot -39.6537 25.0326
ltoes 7.43704
2
root 1.62774 16.1931 -32.7566 18.7545 5.60079 -4.67547
lowerback -7.06097 0.645058 2.25408
upperback -9.86931 0.883382 1.10538
thorax -6.34519 0.348059 -0.0923267
lowerneck -10.9029 -1.04819 -1.25728
upperneck 40.3507 -3.09321 4.78174
head 16.4184 -0.794026 1.84367
rclavicle 6.43565e-015 1.23246e-014
rhumerus 42.8897 -31.6706 -16.673
rradius 27.3474
rwrist 6.17575
rhand 8.23924 5.71989
rfingers 7.12502
rthumb 33.4545 -21.1833
lclavicle 6.43565e-015 1.23246e-014
lhumerus 48.6583 37.4773 18.2981
lradius 31.2847
lwrist -17.7813
lhand 4.83296 18.1614
lfingers 7.12502
lthumb 30.2106 45.7103
rfemur -68.1616 6.53232 25.3124
rtibia 43.8376
rfoot -10.0517 -41.8523
rtoes 41.0118
lfemur -36.8901 -4.59723 -24.3284
ltibia 40.2977
lfoot -39.4231 24.9416
ltoes 7.16494
3
root 1.63042 16.1965 -32.7481 18.8699 5.92168 -4.69512
lowerback -6.49761 0.589186 2.45651
upperback -10.3873 0.836051 1.03651
thorax -7.23154 0.297083 -0.283776
lowerneck -10.2889 -1.09961 -1.20346
upperneck 40.4149 -3.18524 4.78129
head 16.3036 -0.830857 1.82055
rclavicle 6.00081e-015 -1.19271e-014
rhumerus 44.0517 -32.0266 -17.0728
rradius 27.9434
rwrist 6.23906
rhand 8.628 6.05952
rfingers 7.12502
rthumb 33.8239 -20.7632
lclavicle 6.00081e-015 -1.19271e-014
lhumerus 50.4663 37.2988 18.8885
lradius 32.1769
lwrist -16.6903
lhand 4.92431 17.5316
lfingers 7.12502
lthumb 30.2978 45.0645
rfemur -68.3594 6.70999 24.9186
rtibia 43.8519
rfoot -10.9325 -42.0357
rtoes 41.0912
lfemur -36.9926 -4.48563 -24.3068
ltibia 40.2391
lfoot -39.0102 25.0636
ltoes 6.03226
4
root 1.62864 16.1978 -32.7401 19.0424 6.30383 -4.62872
lowerback -6.17796 0.565558 2.54797
upperback -10.7782 0.819365 0.888813
thorax -7.84547 0.267547 -0.493264
lowerneck -9.78021 -1.21131 -1.15247
upperneck 40.3328 -3.4037 4.89044
head 16.1473 -0.906299 1.82231
rclavicle 1.06847e-015 8.74653e-015
rhumerus 45.0457 -32.4488 -17.313
rradius 28.5602
rwrist 5.99742
rhand 8.6097 6.15904
rfingers 7.12502
rthumb 33.8065 -20.6675
lclavicle 1.06847e-015 8.74653e-015
lhumerus 52.459 37.0209 19.5909
lradius 33.1615
lwrist -15.416
lhand 4.74154 17.3045
lfingers 7.12502
lthumb 30.1234 44.8693
rfemur -68.6505 6.97601 24.3275
rtibia 43.9015
rfoot -12.6384 -42.4042
rtoes 41.8741
lfemur -37.1321 -4.43521 -24.3361
ltibia 40.1501
lfoot -38.5923 25.0259
ltoes 4.95998
5
root 1.6259 16.1975 -32.7326 19.2331 6.37881 -4.64114
lowerback -6.0808 0.518714 2.45848
upperback -10.8189 0.76718 0.976516
thorax -7.94959 0.251479 -0.351496
lowerneck -10.1223 -1.18874 -1.1664
upperneck 40.2929 -3.34546 4.83563
head 16.2062 -0.887192 1.80839
rclavicle 2.93207e-015 -9.54166e-015
rhumerus 46.4347 -32.8973 -17.4065
rradius 29.2856
rwrist 4.7949
rhand 8.10893 5.92795
rfingers 7.12502
rthumb 33.3306 -21.0019
lclavicle 2.93207e-015 -9.54166e-015
lhumerus 54.3984 37.495 20.5798
lradius 34.1061
lwrist -14.5507
lhand 4.27715 17.2888
lfingers 7.12502
lthumb 29.6803 44.9335
rfemur -68.8776 7.06476 24.1657
rtibia 43.9171
rfoot -14.1912 -42.3254
rtoes 43.1553
lfemur -37.3218 -4.46537 -24.2653
ltibia 40.1039
lfoot -38.4762 24.9703
ltoes 4.42086
6
root 1.6249 16.1968 -32.7235 19.5913 6.61718 -4.4023
lowerback -6.59145 0.443996 2.25715
upperback -11.0595 0.656468 0.918271
thorax -7.92797 0.209645 -0.29598
lowerneck -8.78878 -1.17315 -1.09656
upperneck 39.8401 -3.28151 4.78669
head 15.6343 -0.878171 1.7716
rclavicle 7.52897e-015 -1.0138e-014
rhumerus 47.3304 -32.9619 -17.3242
rradius 30.1669
rwrist 3.58711
rhand 8.17838 5.79474
rfingers 7.12502
rthumb 33.3966 -21.1209
lclavicle 7.52897e-015 -1.0138e-014
lhumerus 56.1252 37.3583 21.3249
lradius 35.1188
lwrist -13.7243
lhand 4.15227 17.1086
lfingers 7.12502
lthumb 29.5611 44.7745
rfemur -69.227 6.26045 24.4344
rtibia 43.9508
rfoot -14.2278 -41.7472
rtoes 44.0819
lfemur -37.6531 -4.45986 -24.4801
ltibia 40.0548
lfoot -38.0377 24.9107
ltoes 3.77067
